<?xml version="1.0" encoding="UTF-8" standalone="no"?>
<!DOCTYPE svg PUBLIC "-//W3C//DTD SVG 1.1//EN"
 "http://www.w3.org/Graphics/SVG/1.1/DTD/svg11.dtd">
<!-- Generated by graphviz version 2.40.1 (20161225.0304)
 -->
<!-- Title: %3 Pages: 1 -->
<svg width="956pt" height="1124pt"
 viewBox="0.00 0.00 956.49 1124.00" xmlns="http://www.w3.org/2000/svg" xmlns:xlink="http://www.w3.org/1999/xlink">
<g id="graph0" class="graph" transform="scale(1 1) rotate(0) translate(4 1120)">
<title>%3</title>
<polygon fill="#090b10" stroke="transparent" points="-4,4 -4,-1120 952.4937,-1120 952.4937,4 -4,4"/>
<!-- n0 -->
<g id="node1" class="node">
<title>n0</title>
<ellipse fill="#0f111a" stroke="#007acc" cx="324.2976" cy="-1098" rx="27.8951" ry="18"/>
<text text-anchor="middle" x="324.2976" y="-1094.3" font-family="Times,serif" font-size="14.00" fill="#ffffff">Root</text>
</g>
<!-- n1 -->
<g id="node2" class="node">
<title>n1</title>
<ellipse fill="#0f111a" stroke="#007acc" cx="324.2976" cy="-918" rx="51.9908" ry="18"/>
<text text-anchor="middle" x="324.2976" y="-914.3" font-family="Times,serif" font-size="14.00" fill="#ffffff">Instructions</text>
</g>
<!-- n0&#45;&gt;n1 -->
<g id="edge1" class="edge">
<title>n0&#45;&gt;n1</title>
<path fill="none" stroke="#56cdff" d="M324.2976,-1079.7501C324.2976,-1048.2686 324.2976,-983.5502 324.2976,-946.2249"/>
<polygon fill="#56cdff" stroke="#56cdff" points="327.7977,-946.0306 324.2976,-936.0306 320.7977,-946.0306 327.7977,-946.0306"/>
</g>
<!-- n2 -->
<g id="node3" class="node">
<title>n2</title>
<ellipse fill="#0f111a" stroke="#007acc" cx="324.2976" cy="-738" rx="29.795" ry="18"/>
<text text-anchor="middle" x="324.2976" y="-734.3" font-family="Times,serif" font-size="14.00" fill="#ffffff">Main</text>
</g>
<!-- n1&#45;&gt;n2 -->
<g id="edge2" class="edge">
<title>n1&#45;&gt;n2</title>
<path fill="none" stroke="#56cdff" d="M324.2976,-899.7501C324.2976,-868.2686 324.2976,-803.5502 324.2976,-766.2249"/>
<polygon fill="#56cdff" stroke="#56cdff" points="327.7977,-766.0306 324.2976,-756.0306 320.7977,-766.0306 327.7977,-766.0306"/>
</g>
<!-- n3 -->
<g id="node4" class="node">
<title>n3</title>
<ellipse fill="#0f111a" stroke="#007acc" cx="142.2976" cy="-558" rx="28.6953" ry="18"/>
<text text-anchor="middle" x="142.2976" y="-554.3" font-family="Times,serif" font-size="14.00" fill="#ffffff">main</text>
</g>
<!-- n2&#45;&gt;n3 -->
<g id="edge3" class="edge">
<title>n2&#45;&gt;n3</title>
<path fill="none" stroke="#56cdff" d="M308.4647,-722.3411C276.1685,-690.3998 202.5864,-617.6263 165.1247,-580.5763"/>
<polygon fill="#56cdff" stroke="#56cdff" points="167.2781,-577.7834 157.7069,-573.24 162.3558,-582.7604 167.2781,-577.7834"/>
</g>
<!-- n4 -->
<g id="node5" class="node">
<title>n4</title>
<ellipse fill="#0f111a" stroke="#007acc" cx="216.2976" cy="-558" rx="27" ry="18"/>
<text text-anchor="middle" x="216.2976" y="-554.3" font-family="Times,serif" font-size="14.00" fill="#ffffff">(</text>
</g>
<!-- n2&#45;&gt;n4 -->
<g id="edge4" class="edge">
<title>n2&#45;&gt;n4</title>
<path fill="none" stroke="#56cdff" d="M314.1372,-721.066C295.113,-689.359 254.0227,-620.8751 231.6203,-583.5379"/>
<polygon fill="#56cdff" stroke="#56cdff" points="234.4985,-581.532 226.3523,-574.7578 228.4961,-585.1335 234.4985,-581.532"/>
</g>
<!-- n5 -->
<g id="node6" class="node">
<title>n5</title>
<ellipse fill="#0f111a" stroke="#007acc" cx="288.2976" cy="-558" rx="27" ry="18"/>
<text text-anchor="middle" x="288.2976" y="-554.3" font-family="Times,serif" font-size="14.00" fill="#ffffff">)</text>
</g>
<!-- n2&#45;&gt;n5 -->
<g id="edge5" class="edge">
<title>n2&#45;&gt;n5</title>
<path fill="none" stroke="#56cdff" d="M320.7141,-720.0828C314.4336,-688.6803 301.3955,-623.4894 293.9093,-586.0586"/>
<polygon fill="#56cdff" stroke="#56cdff" points="297.2598,-584.9641 291.8665,-575.8447 290.3957,-586.3369 297.2598,-584.9641"/>
</g>
<!-- n6 -->
<g id="node7" class="node">
<title>n6</title>
<ellipse fill="#0f111a" stroke="#007acc" cx="360.2976" cy="-558" rx="27" ry="18"/>
<text text-anchor="middle" x="360.2976" y="-554.3" font-family="Times,serif" font-size="14.00" fill="#ffffff">{</text>
</g>
<!-- n2&#45;&gt;n6 -->
<g id="edge6" class="edge">
<title>n2&#45;&gt;n6</title>
<path fill="none" stroke="#56cdff" d="M327.881,-720.0828C334.1615,-688.6803 347.1997,-623.4894 354.6858,-586.0586"/>
<polygon fill="#56cdff" stroke="#56cdff" points="358.1994,-586.3369 356.7286,-575.8447 351.3354,-584.9641 358.1994,-586.3369"/>
</g>
<!-- n7 -->
<g id="node8" class="node">
<title>n7</title>
<ellipse fill="#0f111a" stroke="#007acc" cx="457.2976" cy="-558" rx="51.9908" ry="18"/>
<text text-anchor="middle" x="457.2976" y="-554.3" font-family="Times,serif" font-size="14.00" fill="#ffffff">Instructions</text>
</g>
<!-- n2&#45;&gt;n7 -->
<g id="edge7" class="edge">
<title>n2&#45;&gt;n7</title>
<path fill="none" stroke="#56cdff" d="M336.5715,-721.3887C359.7899,-689.9652 410.2971,-621.6096 438.0597,-584.0363"/>
<polygon fill="#56cdff" stroke="#56cdff" points="441.1447,-585.7507 444.2724,-575.628 435.5148,-581.5908 441.1447,-585.7507"/>
</g>
<!-- n26 -->
<g id="node27" class="node">
<title>n26</title>
<ellipse fill="#0f111a" stroke="#007acc" cx="554.2976" cy="-558" rx="27" ry="18"/>
<text text-anchor="middle" x="554.2976" y="-554.3" font-family="Times,serif" font-size="14.00" fill="#ffffff">}</text>
</g>
<!-- n2&#45;&gt;n26 -->
<g id="edge26" class="edge">
<title>n2&#45;&gt;n26</title>
<path fill="none" stroke="#56cdff" d="M342.7307,-723.5741C383.5739,-691.6098 481.7691,-614.7614 528.6052,-578.1071"/>
<polygon fill="#56cdff" stroke="#56cdff" points="531.0095,-580.6699 536.7274,-571.7505 526.6953,-575.1574 531.0095,-580.6699"/>
</g>
<!-- n8 -->
<g id="node9" class="node">
<title>n8</title>
<ellipse fill="#0f111a" stroke="#007acc" cx="188.2976" cy="-378" rx="27.8951" ry="18"/>
<text text-anchor="middle" x="188.2976" y="-374.3" font-family="Times,serif" font-size="14.00" fill="#ffffff">Print</text>
</g>
<!-- n7&#45;&gt;n8 -->
<g id="edge8" class="edge">
<title>n7&#45;&gt;n8</title>
<path fill="none" stroke="#56cdff" d="M432.9512,-541.7087C383.0703,-508.3312 269.5097,-432.3427 216.5139,-396.8808"/>
<polygon fill="#56cdff" stroke="#56cdff" points="218.2059,-393.8017 207.9484,-391.1492 214.3129,-399.6194 218.2059,-393.8017"/>
</g>
<!-- n14 -->
<g id="node15" class="node">
<title>n14</title>
<ellipse fill="#0f111a" stroke="#007acc" cx="457.2976" cy="-378" rx="51.9908" ry="18"/>
<text text-anchor="middle" x="457.2976" y="-374.3" font-family="Times,serif" font-size="14.00" fill="#ffffff">Declaration</text>
</g>
<!-- n7&#45;&gt;n14 -->
<g id="edge14" class="edge">
<title>n7&#45;&gt;n14</title>
<path fill="none" stroke="#56cdff" d="M457.2976,-539.7501C457.2976,-508.2686 457.2976,-443.5502 457.2976,-406.2249"/>
<polygon fill="#56cdff" stroke="#56cdff" points="460.7977,-406.0306 457.2976,-396.0306 453.7977,-406.0306 460.7977,-406.0306"/>
</g>
<!-- n20 -->
<g id="node21" class="node">
<title>n20</title>
<ellipse fill="#0f111a" stroke="#007acc" cx="743.2976" cy="-378" rx="51.9908" ry="18"/>
<text text-anchor="middle" x="743.2976" y="-374.3" font-family="Times,serif" font-size="14.00" fill="#ffffff">Declaration</text>
</g>
<!-- n7&#45;&gt;n20 -->
<g id="edge20" class="edge">
<title>n7&#45;&gt;n20</title>
<path fill="none" stroke="#56cdff" d="M482.4275,-542.184C533.7935,-509.8557 650.8653,-436.1741 709.0961,-399.5254"/>
<polygon fill="#56cdff" stroke="#56cdff" points="711.3185,-402.2623 717.9175,-393.9735 707.5898,-396.3379 711.3185,-402.2623"/>
</g>
<!-- n9 -->
<g id="node10" class="node">
<title>n9</title>
<ellipse fill="#0f111a" stroke="#007acc" cx="27.2976" cy="-198" rx="27.0966" ry="18"/>
<text text-anchor="middle" x="27.2976" y="-194.3" font-family="Times,serif" font-size="14.00" fill="#ffffff">print</text>
</g>
<!-- n8&#45;&gt;n9 -->
<g id="edge9" class="edge">
<title>n8&#45;&gt;n9</title>
<path fill="none" stroke="#56cdff" d="M174.2915,-362.3411C145.9837,-330.6925 81.8198,-258.9565 48.4098,-221.6037"/>
<polygon fill="#56cdff" stroke="#56cdff" points="50.6614,-218.8711 41.3859,-213.7509 45.4439,-223.5378 50.6614,-218.8711"/>
</g>
<!-- n10 -->
<g id="node11" class="node">
<title>n10</title>
<ellipse fill="#0f111a" stroke="#007acc" cx="99.2976" cy="-198" rx="27" ry="18"/>
<text text-anchor="middle" x="99.2976" y="-194.3" font-family="Times,serif" font-size="14.00" fill="#ffffff">(</text>
</g>
<!-- n8&#45;&gt;n10 -->
<g id="edge10" class="edge">
<title>n8&#45;&gt;n10</title>
<path fill="none" stroke="#56cdff" d="M179.7639,-360.7408C164.1478,-329.1578 130.8821,-261.8787 112.3868,-224.4725"/>
<polygon fill="#56cdff" stroke="#56cdff" points="115.3752,-222.6197 107.8054,-215.2069 109.1003,-225.7223 115.3752,-222.6197"/>
</g>
<!-- n11 -->
<g id="node12" class="node">
<title>n11</title>
<ellipse fill="#0f111a" stroke="#007acc" cx="188.2976" cy="-198" rx="44.393" ry="18"/>
<text text-anchor="middle" x="188.2976" y="-194.3" font-family="Times,serif" font-size="14.00" fill="#ffffff">Primitive</text>
</g>
<!-- n8&#45;&gt;n11 -->
<g id="edge11" class="edge">
<title>n8&#45;&gt;n11</title>
<path fill="none" stroke="#56cdff" d="M188.2976,-359.7501C188.2976,-328.2686 188.2976,-263.5502 188.2976,-226.2249"/>
<polygon fill="#56cdff" stroke="#56cdff" points="191.7977,-226.0306 188.2976,-216.0306 184.7977,-226.0306 191.7977,-226.0306"/>
</g>
<!-- n13 -->
<g id="node14" class="node">
<title>n13</title>
<ellipse fill="#0f111a" stroke="#007acc" cx="277.2976" cy="-198" rx="27" ry="18"/>
<text text-anchor="middle" x="277.2976" y="-194.3" font-family="Times,serif" font-size="14.00" fill="#ffffff">)</text>
</g>
<!-- n8&#45;&gt;n13 -->
<g id="edge13" class="edge">
<title>n8&#45;&gt;n13</title>
<path fill="none" stroke="#56cdff" d="M196.8313,-360.7408C212.4473,-329.1578 245.7131,-261.8787 264.2084,-224.4725"/>
<polygon fill="#56cdff" stroke="#56cdff" points="267.4949,-225.7223 268.7897,-215.2069 261.22,-222.6197 267.4949,-225.7223"/>
</g>
<!-- n12 -->
<g id="node13" class="node">
<title>n12</title>
<ellipse fill="#0f111a" stroke="#007acc" cx="188.2976" cy="-18" rx="27.8951" ry="18"/>
<text text-anchor="middle" x="188.2976" y="-14.3" font-family="Times,serif" font-size="14.00" fill="#ffffff">Hola</text>
</g>
<!-- n11&#45;&gt;n12 -->
<g id="edge12" class="edge">
<title>n11&#45;&gt;n12</title>
<path fill="none" stroke="#56cdff" d="M188.2976,-179.7501C188.2976,-148.2686 188.2976,-83.5502 188.2976,-46.2249"/>
<polygon fill="#56cdff" stroke="#56cdff" points="191.7977,-46.0306 188.2976,-36.0306 184.7977,-46.0306 191.7977,-46.0306"/>
</g>
<!-- n15 -->
<g id="node16" class="node">
<title>n15</title>
<ellipse fill="#0f111a" stroke="#007acc" cx="349.2976" cy="-198" rx="27" ry="18"/>
<text text-anchor="middle" x="349.2976" y="-194.3" font-family="Times,serif" font-size="14.00" fill="#ffffff">var</text>
</g>
<!-- n14&#45;&gt;n15 -->
<g id="edge15" class="edge">
<title>n14&#45;&gt;n15</title>
<path fill="none" stroke="#56cdff" d="M446.5473,-360.0828C427.2664,-327.9481 386.7561,-260.4309 364.5894,-223.4863"/>
<polygon fill="#56cdff" stroke="#56cdff" points="367.5193,-221.5667 359.3731,-214.7925 361.5168,-225.1682 367.5193,-221.5667"/>
</g>
<!-- n16 -->
<g id="node17" class="node">
<title>n16</title>
<ellipse fill="#0f111a" stroke="#007acc" cx="421.2976" cy="-198" rx="27" ry="18"/>
<text text-anchor="middle" x="421.2976" y="-194.3" font-family="Times,serif" font-size="14.00" fill="#ffffff">a</text>
</g>
<!-- n14&#45;&gt;n16 -->
<g id="edge16" class="edge">
<title>n14&#45;&gt;n16</title>
<path fill="none" stroke="#56cdff" d="M453.6476,-359.7501C447.3513,-328.2686 434.4076,-263.5502 426.9426,-226.2249"/>
<polygon fill="#56cdff" stroke="#56cdff" points="430.297,-225.15 424.9037,-216.0306 423.4329,-226.5229 430.297,-225.15"/>
</g>
<!-- n17 -->
<g id="node18" class="node">
<title>n17</title>
<ellipse fill="#0f111a" stroke="#007acc" cx="493.2976" cy="-198" rx="27" ry="18"/>
<text text-anchor="middle" x="493.2976" y="-194.3" font-family="Times,serif" font-size="14.00" fill="#ffffff">=</text>
</g>
<!-- n14&#45;&gt;n17 -->
<g id="edge17" class="edge">
<title>n14&#45;&gt;n17</title>
<path fill="none" stroke="#56cdff" d="M460.9476,-359.7501C467.2439,-328.2686 480.1875,-263.5502 487.6526,-226.2249"/>
<polygon fill="#56cdff" stroke="#56cdff" points="491.1622,-226.5229 489.6915,-216.0306 484.2982,-225.15 491.1622,-226.5229"/>
</g>
<!-- n18 -->
<g id="node19" class="node">
<title>n18</title>
<ellipse fill="#0f111a" stroke="#007acc" cx="582.2976" cy="-198" rx="44.393" ry="18"/>
<text text-anchor="middle" x="582.2976" y="-194.3" font-family="Times,serif" font-size="14.00" fill="#ffffff">Primitive</text>
</g>
<!-- n14&#45;&gt;n18 -->
<g id="edge18" class="edge">
<title>n14&#45;&gt;n18</title>
<path fill="none" stroke="#56cdff" d="M469.5107,-360.4131C491.6911,-328.4734 538.6762,-260.8148 564.4523,-223.6973"/>
<polygon fill="#56cdff" stroke="#56cdff" points="567.3897,-225.6034 570.2189,-215.3933 561.6401,-221.6106 567.3897,-225.6034"/>
</g>
<!-- n19 -->
<g id="node20" class="node">
<title>n19</title>
<ellipse fill="#0f111a" stroke="#007acc" cx="582.2976" cy="-18" rx="27" ry="18"/>
<text text-anchor="middle" x="582.2976" y="-14.3" font-family="Times,serif" font-size="14.00" fill="#ffffff">hola</text>
</g>
<!-- n18&#45;&gt;n19 -->
<g id="edge19" class="edge">
<title>n18&#45;&gt;n19</title>
<path fill="none" stroke="#56cdff" d="M582.2976,-179.7501C582.2976,-148.2686 582.2976,-83.5502 582.2976,-46.2249"/>
<polygon fill="#56cdff" stroke="#56cdff" points="585.7977,-46.0306 582.2976,-36.0306 578.7977,-46.0306 585.7977,-46.0306"/>
</g>
<!-- n21 -->
<g id="node22" class="node">
<title>n21</title>
<ellipse fill="#0f111a" stroke="#007acc" cx="671.2976" cy="-198" rx="27" ry="18"/>
<text text-anchor="middle" x="671.2976" y="-194.3" font-family="Times,serif" font-size="14.00" fill="#ffffff">var</text>
</g>
<!-- n20&#45;&gt;n21 -->
<g id="edge21" class="edge">
<title>n20&#45;&gt;n21</title>
<path fill="none" stroke="#56cdff" d="M736.1307,-360.0828C723.4833,-328.4642 697.1339,-262.5908 682.2136,-225.29"/>
<polygon fill="#56cdff" stroke="#56cdff" points="685.2929,-223.5641 678.3293,-215.5792 678.7935,-226.1638 685.2929,-223.5641"/>
</g>
<!-- n22 -->
<g id="node23" class="node">
<title>n22</title>
<ellipse fill="#0f111a" stroke="#007acc" cx="743.2976" cy="-198" rx="27" ry="18"/>
<text text-anchor="middle" x="743.2976" y="-194.3" font-family="Times,serif" font-size="14.00" fill="#ffffff">b</text>
</g>
<!-- n20&#45;&gt;n22 -->
<g id="edge22" class="edge">
<title>n20&#45;&gt;n22</title>
<path fill="none" stroke="#56cdff" d="M743.2976,-359.7501C743.2976,-328.2686 743.2976,-263.5502 743.2976,-226.2249"/>
<polygon fill="#56cdff" stroke="#56cdff" points="746.7977,-226.0306 743.2976,-216.0306 739.7977,-226.0306 746.7977,-226.0306"/>
</g>
<!-- n23 -->
<g id="node24" class="node">
<title>n23</title>
<ellipse fill="#0f111a" stroke="#007acc" cx="815.2976" cy="-198" rx="27" ry="18"/>
<text text-anchor="middle" x="815.2976" y="-194.3" font-family="Times,serif" font-size="14.00" fill="#ffffff">=</text>
</g>
<!-- n20&#45;&gt;n23 -->
<g id="edge23" class="edge">
<title>n20&#45;&gt;n23</title>
<path fill="none" stroke="#56cdff" d="M750.4644,-360.0828C763.1119,-328.4642 789.4613,-262.5908 804.3816,-225.29"/>
<polygon fill="#56cdff" stroke="#56cdff" points="807.8016,-226.1638 808.2659,-215.5792 801.3023,-223.5641 807.8016,-226.1638"/>
</g>
<!-- n24 -->
<g id="node25" class="node">
<title>n24</title>
<ellipse fill="#0f111a" stroke="#007acc" cx="904.2976" cy="-198" rx="44.393" ry="18"/>
<text text-anchor="middle" x="904.2976" y="-194.3" font-family="Times,serif" font-size="14.00" fill="#ffffff">Primitive</text>
</g>
<!-- n20&#45;&gt;n24 -->
<g id="edge24" class="edge">
<title>n20&#45;&gt;n24</title>
<path fill="none" stroke="#56cdff" d="M758.7349,-360.7408C787.418,-328.6728 849.0173,-259.804 882.1416,-222.7706"/>
<polygon fill="#56cdff" stroke="#56cdff" points="885.084,-224.731 889.142,-214.9441 879.8665,-220.0642 885.084,-224.731"/>
</g>
<!-- n25 -->
<g id="node26" class="node">
<title>n25</title>
<ellipse fill="#0f111a" stroke="#007acc" cx="904.2976" cy="-18" rx="34.394" ry="18"/>
<text text-anchor="middle" x="904.2976" y="-14.3" font-family="Times,serif" font-size="14.00" fill="#ffffff">mañan</text>
</g>
<!-- n24&#45;&gt;n25 -->
<g id="edge25" class="edge">
<title>n24&#45;&gt;n25</title>
<path fill="none" stroke="#56cdff" d="M904.2976,-179.7501C904.2976,-148.2686 904.2976,-83.5502 904.2976,-46.2249"/>
<polygon fill="#56cdff" stroke="#56cdff" points="907.7977,-46.0306 904.2976,-36.0306 900.7977,-46.0306 907.7977,-46.0306"/>
</g>
</g>
</svg>
