<?xml version="1.0" encoding="UTF-8" standalone="no"?>
<!DOCTYPE svg PUBLIC "-//W3C//DTD SVG 1.1//EN"
 "http://www.w3.org/Graphics/SVG/1.1/DTD/svg11.dtd">
<!-- Generated by graphviz version 2.40.1 (20161225.0304)
 -->
<!-- Title: %3 Pages: 1 -->
<svg width="513pt" height="476pt"
 viewBox="0.00 0.00 512.60 476.00" xmlns="http://www.w3.org/2000/svg" xmlns:xlink="http://www.w3.org/1999/xlink">
<g id="graph0" class="graph" transform="scale(1 1) rotate(0) translate(4 472)">
<title>%3</title>
<polygon fill="#090b10" stroke="transparent" points="-4,4 -4,-472 508.5975,-472 508.5975,4 -4,4"/>
<!-- n0 -->
<g id="node1" class="node">
<title>n0</title>
<ellipse fill="#0f111a" stroke="#007acc" cx="210.5975" cy="-450" rx="27.8951" ry="18"/>
<text text-anchor="middle" x="210.5975" y="-446.3" font-family="Times,serif" font-size="14.00" fill="#ffffff">Root</text>
</g>
<!-- n1 -->
<g id="node2" class="node">
<title>n1</title>
<ellipse fill="#0f111a" stroke="#007acc" cx="210.5975" cy="-378" rx="51.9908" ry="18"/>
<text text-anchor="middle" x="210.5975" y="-374.3" font-family="Times,serif" font-size="14.00" fill="#ffffff">Instructions</text>
</g>
<!-- n0&#45;&gt;n1 -->
<g id="edge1" class="edge">
<title>n0&#45;&gt;n1</title>
<path fill="none" stroke="#56cdff" d="M210.5975,-431.8314C210.5975,-424.131 210.5975,-414.9743 210.5975,-406.4166"/>
<polygon fill="#56cdff" stroke="#56cdff" points="214.0976,-406.4132 210.5975,-396.4133 207.0976,-406.4133 214.0976,-406.4132"/>
</g>
<!-- n2 -->
<g id="node3" class="node">
<title>n2</title>
<ellipse fill="#0f111a" stroke="#007acc" cx="210.5975" cy="-306" rx="29.795" ry="18"/>
<text text-anchor="middle" x="210.5975" y="-302.3" font-family="Times,serif" font-size="14.00" fill="#ffffff">Main</text>
</g>
<!-- n1&#45;&gt;n2 -->
<g id="edge2" class="edge">
<title>n1&#45;&gt;n2</title>
<path fill="none" stroke="#56cdff" d="M210.5975,-359.8314C210.5975,-352.131 210.5975,-342.9743 210.5975,-334.4166"/>
<polygon fill="#56cdff" stroke="#56cdff" points="214.0976,-334.4132 210.5975,-324.4133 207.0976,-334.4133 214.0976,-334.4132"/>
</g>
<!-- n3 -->
<g id="node4" class="node">
<title>n3</title>
<ellipse fill="#0f111a" stroke="#007acc" cx="28.5975" cy="-234" rx="28.6953" ry="18"/>
<text text-anchor="middle" x="28.5975" y="-230.3" font-family="Times,serif" font-size="14.00" fill="#ffffff">main</text>
</g>
<!-- n2&#45;&gt;n3 -->
<g id="edge3" class="edge">
<title>n2&#45;&gt;n3</title>
<path fill="none" stroke="#56cdff" d="M184.5885,-296.9861C155.5505,-286.7518 107.2879,-269.2311 66.5975,-252 64.7321,-251.2101 62.8246,-250.3799 60.9061,-249.5275"/>
<polygon fill="#56cdff" stroke="#56cdff" points="61.9148,-246.1401 51.3651,-245.1634 59.0031,-252.5059 61.9148,-246.1401"/>
</g>
<!-- n4 -->
<g id="node5" class="node">
<title>n4</title>
<ellipse fill="#0f111a" stroke="#007acc" cx="102.5975" cy="-234" rx="27" ry="18"/>
<text text-anchor="middle" x="102.5975" y="-230.3" font-family="Times,serif" font-size="14.00" fill="#ffffff">(</text>
</g>
<!-- n2&#45;&gt;n4 -->
<g id="edge4" class="edge">
<title>n2&#45;&gt;n4</title>
<path fill="none" stroke="#56cdff" d="M190.5366,-292.6261C173.5796,-281.3214 149.1139,-265.0109 130.2911,-252.4624"/>
<polygon fill="#56cdff" stroke="#56cdff" points="132.087,-249.4532 121.825,-246.8183 128.204,-255.2776 132.087,-249.4532"/>
</g>
<!-- n5 -->
<g id="node6" class="node">
<title>n5</title>
<ellipse fill="#0f111a" stroke="#007acc" cx="174.5975" cy="-234" rx="27" ry="18"/>
<text text-anchor="middle" x="174.5975" y="-230.3" font-family="Times,serif" font-size="14.00" fill="#ffffff">)</text>
</g>
<!-- n2&#45;&gt;n5 -->
<g id="edge5" class="edge">
<title>n2&#45;&gt;n5</title>
<path fill="none" stroke="#56cdff" d="M201.8829,-288.5708C197.6378,-280.0807 192.4439,-269.6929 187.7312,-260.2674"/>
<polygon fill="#56cdff" stroke="#56cdff" points="190.8345,-258.6477 183.2318,-251.2687 184.5735,-261.7782 190.8345,-258.6477"/>
</g>
<!-- n6 -->
<g id="node7" class="node">
<title>n6</title>
<ellipse fill="#0f111a" stroke="#007acc" cx="246.5975" cy="-234" rx="27" ry="18"/>
<text text-anchor="middle" x="246.5975" y="-230.3" font-family="Times,serif" font-size="14.00" fill="#ffffff">{</text>
</g>
<!-- n2&#45;&gt;n6 -->
<g id="edge6" class="edge">
<title>n2&#45;&gt;n6</title>
<path fill="none" stroke="#56cdff" d="M219.3121,-288.5708C223.5571,-280.0807 228.751,-269.6929 233.4638,-260.2674"/>
<polygon fill="#56cdff" stroke="#56cdff" points="236.6214,-261.7782 237.9631,-251.2687 230.3604,-258.6477 236.6214,-261.7782"/>
</g>
<!-- n7 -->
<g id="node8" class="node">
<title>n7</title>
<ellipse fill="#0f111a" stroke="#007acc" cx="343.5975" cy="-234" rx="51.9908" ry="18"/>
<text text-anchor="middle" x="343.5975" y="-230.3" font-family="Times,serif" font-size="14.00" fill="#ffffff">Instructions</text>
</g>
<!-- n2&#45;&gt;n7 -->
<g id="edge7" class="edge">
<title>n2&#45;&gt;n7</title>
<path fill="none" stroke="#56cdff" d="M232.8587,-293.9488C252.8353,-283.1344 282.5594,-267.0431 306.184,-254.2539"/>
<polygon fill="#56cdff" stroke="#56cdff" points="308.1048,-257.1941 315.2326,-249.3554 304.7722,-251.0382 308.1048,-257.1941"/>
</g>
<!-- n14 -->
<g id="node15" class="node">
<title>n14</title>
<ellipse fill="#0f111a" stroke="#007acc" cx="440.5975" cy="-234" rx="27" ry="18"/>
<text text-anchor="middle" x="440.5975" y="-230.3" font-family="Times,serif" font-size="14.00" fill="#ffffff">}</text>
</g>
<!-- n2&#45;&gt;n14 -->
<g id="edge14" class="edge">
<title>n2&#45;&gt;n14</title>
<path fill="none" stroke="#56cdff" d="M238.7699,-299.9534C277.0138,-291.3427 347.1761,-274.1108 404.5975,-252 406.4559,-251.2844 408.3468,-250.505 410.2398,-249.6849"/>
<polygon fill="#56cdff" stroke="#56cdff" points="411.9831,-252.7346 419.5826,-245.3523 409.0381,-246.3842 411.9831,-252.7346"/>
</g>
<!-- n8 -->
<g id="node9" class="node">
<title>n8</title>
<ellipse fill="#0f111a" stroke="#007acc" cx="343.5975" cy="-162" rx="27.8951" ry="18"/>
<text text-anchor="middle" x="343.5975" y="-158.3" font-family="Times,serif" font-size="14.00" fill="#ffffff">Print</text>
</g>
<!-- n7&#45;&gt;n8 -->
<g id="edge8" class="edge">
<title>n7&#45;&gt;n8</title>
<path fill="none" stroke="#56cdff" d="M343.5975,-215.8314C343.5975,-208.131 343.5975,-198.9743 343.5975,-190.4166"/>
<polygon fill="#56cdff" stroke="#56cdff" points="347.0976,-190.4132 343.5975,-180.4133 340.0976,-190.4133 347.0976,-190.4132"/>
</g>
<!-- n9 -->
<g id="node10" class="node">
<title>n9</title>
<ellipse fill="#0f111a" stroke="#007acc" cx="227.5975" cy="-90" rx="27.0966" ry="18"/>
<text text-anchor="middle" x="227.5975" y="-86.3" font-family="Times,serif" font-size="14.00" fill="#ffffff">print</text>
</g>
<!-- n8&#45;&gt;n9 -->
<g id="edge9" class="edge">
<title>n8&#45;&gt;n9</title>
<path fill="none" stroke="#56cdff" d="M323.3918,-149.4586C304.8453,-137.9469 277.1667,-120.7671 256.3239,-107.8302"/>
<polygon fill="#56cdff" stroke="#56cdff" points="257.9138,-104.6977 247.5716,-102.3977 254.2222,-110.6451 257.9138,-104.6977"/>
</g>
<!-- n10 -->
<g id="node11" class="node">
<title>n10</title>
<ellipse fill="#0f111a" stroke="#007acc" cx="299.5975" cy="-90" rx="27" ry="18"/>
<text text-anchor="middle" x="299.5975" y="-86.3" font-family="Times,serif" font-size="14.00" fill="#ffffff">(</text>
</g>
<!-- n8&#45;&gt;n10 -->
<g id="edge10" class="edge">
<title>n8&#45;&gt;n10</title>
<path fill="none" stroke="#56cdff" d="M333.1701,-144.937C327.8,-136.1496 321.1439,-125.2579 315.1781,-115.4956"/>
<polygon fill="#56cdff" stroke="#56cdff" points="318.151,-113.6483 309.95,-106.9405 312.1781,-117.2984 318.151,-113.6483"/>
</g>
<!-- n11 -->
<g id="node12" class="node">
<title>n11</title>
<ellipse fill="#0f111a" stroke="#007acc" cx="388.5975" cy="-90" rx="44.393" ry="18"/>
<text text-anchor="middle" x="388.5975" y="-86.3" font-family="Times,serif" font-size="14.00" fill="#ffffff">Primitive</text>
</g>
<!-- n8&#45;&gt;n11 -->
<g id="edge11" class="edge">
<title>n8&#45;&gt;n11</title>
<path fill="none" stroke="#56cdff" d="M354.0345,-145.3008C359.4414,-136.6496 366.1679,-125.8873 372.246,-116.1623"/>
<polygon fill="#56cdff" stroke="#56cdff" points="375.2572,-117.9482 377.5892,-107.6132 369.3212,-114.2382 375.2572,-117.9482"/>
</g>
<!-- n13 -->
<g id="node14" class="node">
<title>n13</title>
<ellipse fill="#0f111a" stroke="#007acc" cx="477.5975" cy="-90" rx="27" ry="18"/>
<text text-anchor="middle" x="477.5975" y="-86.3" font-family="Times,serif" font-size="14.00" fill="#ffffff">)</text>
</g>
<!-- n8&#45;&gt;n13 -->
<g id="edge13" class="edge">
<title>n8&#45;&gt;n13</title>
<path fill="none" stroke="#56cdff" d="M365.1269,-150.432C387.4312,-138.4475 422.4651,-119.6233 447.5037,-106.1698"/>
<polygon fill="#56cdff" stroke="#56cdff" points="449.411,-109.1183 456.5633,-101.302 446.0977,-102.952 449.411,-109.1183"/>
</g>
<!-- n12 -->
<g id="node13" class="node">
<title>n12</title>
<ellipse fill="#0f111a" stroke="#007acc" cx="388.5975" cy="-18" rx="27.8951" ry="18"/>
<text text-anchor="middle" x="388.5975" y="-14.3" font-family="Times,serif" font-size="14.00" fill="#ffffff">Hola</text>
</g>
<!-- n11&#45;&gt;n12 -->
<g id="edge12" class="edge">
<title>n11&#45;&gt;n12</title>
<path fill="none" stroke="#56cdff" d="M388.5975,-71.8314C388.5975,-64.131 388.5975,-54.9743 388.5975,-46.4166"/>
<polygon fill="#56cdff" stroke="#56cdff" points="392.0976,-46.4132 388.5975,-36.4133 385.0976,-46.4133 392.0976,-46.4132"/>
</g>
</g>
</svg>
