<svg xmlns="http://www.w3.org/2000/svg" xmlns:xlink="http://www.w3.org/1999/xlink" xmlns:lucid="lucid" width="1529.67" height="1480"><g transform="translate(-240 -40)" lucid:page-tab-id="ah4RB_5ldLk_"><path d="M808 60c17.67 0 32 17.9 32 40s-14.33 40-32 40h-96c-17.67 0-32-17.9-32-40s14.33-40 32-40z" stroke="#0c7cba" stroke-width="3" fill="url(#a)"/><use xlink:href="#b" transform="matrix(1,0,0,1,685,65) translate(49.1358024691358 39.65277777777778)"/><path d="M695.34 245.8c.86-3.2 4.24-5.8 7.55-5.8H834c3.3 0 5.3 2.6 4.45 5.8l-13.8 51.74c-.85 3.2-4.23 5.8-7.54 5.8H686c-3.3 0-5.3-2.6-4.45-5.8z" stroke="#0c7cba" stroke-width="3" fill="url(#c)"/><use xlink:href="#d" transform="matrix(1,0,0,1,685,245) translate(44.14697530864197 17.77777777777778)"/><use xlink:href="#e" transform="matrix(1,0,0,1,685,245) translate(34.029691358024685 44.44444444444444)"/><path d="M760 142.5v94.18" stroke="#0c7cba" stroke-width="2" fill="none"/><path d="M761 142.53h-2v-1.03h2z" fill="#0c7cba"/><path d="M749.82 219.32L760 236.54l10.18-17.22" stroke="#0c7cba" stroke-width="2" fill="none"/><path d="M755.2 423.6c2.65-2 6.95-2 9.6 0l70.4 52.8c2.65 2 2.65 5.2 0 7.2l-70.4 52.8c-2.65 2-6.95 2-9.6 0l-70.4-52.8c-2.65-2-2.65-5.2 0-7.2z" stroke="#0c7cba" stroke-width="3" fill="url(#f)"/><use xlink:href="#g" transform="matrix(1,0,0,1,685,425) translate(20.128456790123444 59.02777777777778)"/><path d="M760 305.83v113.02" stroke="#0c7cba" stroke-width="2" fill="none"/><path d="M761 305.86h-2v-1.03h2z" fill="#0c7cba"/><path d="M749.82 401.5L760 418.7l10.18-17.2" stroke="#0c7cba" stroke-width="2" fill="none"/><path d="M260 566c0-3.3 2.7-6 6-6h148c3.3 0 6 2.7 6 6v68c0 3.3-2.7 6-6 6H266c-3.3 0-6-2.7-6-6z" stroke="#0c7cba" stroke-width="3" fill="url(#h)"/><use xlink:href="#i" transform="matrix(1,0,0,1,272,572) translate(27.320987654320987 17.77777777777778)"/><use xlink:href="#j" transform="matrix(1,0,0,1,272,572) translate(14.358024691358018 44.44444444444444)"/><path d="M463.05 481H346.13l-2.64.7-1.8 1.8-.7 2.63v70.55h-2v-70.8l.92-3.43 2.53-2.53 3.42-.92h117.18zm217.34 0H479.83v-2H680.4z" fill="#0c7cba"/><path d="M681.28 479.4l.28 1.6h-1.2v-2h1.1zM351.04 539.83L340 558.5l-11.04-18.67 1.72-1.02 9.32 15.77 9.32-15.76z" fill="#0c7cba"/><use xlink:href="#k" transform="matrix(1,0,0,1,463.0493757518112,469.3333333333333) translate(0.005000000000000782 14.222222222222223)"/><path d="M1120 566c0-3.3 2.7-6 6-6h148c3.3 0 6 2.7 6 6v68c0 3.3-2.7 6-6 6h-148c-3.3 0-6-2.7-6-6z" stroke="#0c7cba" stroke-width="3" fill="url(#l)"/><use xlink:href="#i" transform="matrix(1,0,0,1,1132,572) translate(27.320987654320987 17.77777777777778)"/><use xlink:href="#m" transform="matrix(1,0,0,1,1132,572) translate(2.629629629629619 44.44444444444444)"/><path d="M1197.55 479.92l2.53 2.53.92 3.42v70.8h-2v-70.54l-.7-2.64-1.8-1.8-2.63-.7h-124.5v-2h124.76zM839.6 481v-2h208.14v2z" fill="#0c7cba"/><path d="M839.64 481h-1.1l.18-.4-.28-1.6h1.2zM1211.04 539.83L1200 558.5l-11.04-18.67 1.72-1.02 9.32 15.77 9.32-15.76z" fill="#0c7cba"/><use xlink:href="#n" transform="matrix(1,0,0,1,1047.740747704979,469.3333333333333) translate(0.005000000000000782 14.222222222222223)"/><path d="M1195.2 723.6c2.65-2 6.95-2 9.6 0l70.4 52.8c2.65 2 2.65 5.2 0 7.2l-70.4 52.8c-2.65 2-6.95 2-9.6 0l-70.4-52.8c-2.65-2-2.65-5.2 0-7.2z" stroke="#0c7cba" stroke-width="3" fill="url(#o)"/><use xlink:href="#p" transform="matrix(1,0,0,1,1125,725) translate(38.67783950617284 59.02777777777778)"/><path d="M1200 642.5v76.35" stroke="#0c7cba" stroke-width="2" fill="none"/><path d="M1201 642.53h-2v-1.03h2z" fill="#0c7cba"/><path d="M1189.82 701.5l10.18 17.2 10.18-17.2" stroke="#0c7cba" stroke-width="2" fill="none"/><path d="M1120 966c0-3.3 2.7-6 6-6h148c3.3 0 6 2.7 6 6v68c0 3.3-2.7 6-6 6h-148c-3.3 0-6-2.7-6-6z" stroke="#0c7cba" stroke-width="3" fill="url(#q)"/><use xlink:href="#r" transform="matrix(1,0,0,1,1132,972) translate(24.882716049382715 31.77777777777778)"/><path d="M1401.57 781H1279.6v-2h121.97zm137.94 0h-121.14v-2h121.15z" fill="#0c7cba"/><path d="M1279.64 781h-1.1l.18-.4-.28-1.6h1.2zM1541.33 780l-18.67 11.04-1.02-1.72 15.76-9.32-15.76-9.32 1.02-1.72z" fill="#0c7cba"/><use xlink:href="#k" transform="matrix(1,0,0,1,1401.5739264194233,769.3333333333334) translate(0.005000000000000782 14.222222222222223)"/><path d="M754.63 942.68c2.97-1.48 7.77-1.48 10.74 0l109.26 54.64c2.97 1.48 2.97 3.88 0 5.36l-109.26 54.64c-2.97 1.48-7.77 1.48-10.74 0l-109.26-54.64c-2.97-1.48-2.97-3.88 0-5.36z" stroke="#0c7cba" stroke-width="3" fill="url(#s)"/><use xlink:href="#t" transform="matrix(1,0,0,1,645,945) translate(71.23456790123457 46.111111111111114)"/><use xlink:href="#u" transform="matrix(1,0,0,1,645,945) translate(116.85185185185185 46.111111111111114)"/><use xlink:href="#v" transform="matrix(1,0,0,1,645,945) translate(44.10493827160494 72.77777777777777)"/><path d="M1117.5 1000H879.92" stroke="#0c7cba" stroke-width="2" fill="none"/><path d="M1118.5 1001h-1.03v-2h1.03z" fill="#0c7cba"/><path d="M897.28 989.82l-17.2 10.18 17.2 10.18M340 642.5V994c0 3.3 2.7 6 6 6h294.08" stroke="#0c7cba" stroke-width="2" fill="none"/><path d="M341 642.53h-2v-1.03h2z" fill="#0c7cba"/><path d="M622.72 1010.18l17.2-10.18-17.2-10.18" stroke="#0c7cba" stroke-width="2" fill="none"/><path d="M761 939.16h-2V750.4h2zm0-210.08h-2V541.15h2z" fill="#0c7cba"/><path d="M761 940.1l-2 .12v-1.1h2zM771.04 558l-1.72 1.02-9.32-15.76-9.32 15.76-1.72-1.02L760 539.33z" fill="#0c7cba"/><use xlink:href="#k" transform="matrix(1,0,0,1,751.604938271605,729.0765182642558) translate(0.005000000000000782 14.222222222222223)"/><path d="M570 1166c0-3.3 2.7-6 6-6h368c3.3 0 6 2.7 6 6v108c0 3.3-2.7 6-6 6H576c-3.3 0-6-2.7-6-6z" stroke="#0c7cba" stroke-width="3" fill="url(#w)"/><path d="M608 1160v120m304-120v120" stroke="#0c7cba" stroke-width="3" fill="none"/><use xlink:href="#x" transform="matrix(1,0,0,1,622.5,1165) translate(77.68518518518519 19.44444444444445)"/><use xlink:href="#y" transform="matrix(1,0,0,1,622.5,1165) translate(165.21604938271605 19.44444444444445)"/><use xlink:href="#z" transform="matrix(1,0,0,1,622.5,1165) translate(38.858024691358025 46.111111111111114)"/><use xlink:href="#A" transform="matrix(1,0,0,1,622.5,1165) translate(126.38888888888889 46.111111111111114)"/><use xlink:href="#B" transform="matrix(1,0,0,1,622.5,1165) translate(211.4506172839506 46.111111111111114)"/><use xlink:href="#C" transform="matrix(1,0,0,1,622.5,1165) translate(101.17283950617283 72.77777777777779)"/><use xlink:href="#z" transform="matrix(1,0,0,1,622.5,1165) translate(3.1481481481481524 99.44444444444446)"/><use xlink:href="#D" transform="matrix(1,0,0,1,622.5,1165) translate(90.67901234567901 99.44444444444446)"/><use xlink:href="#E" transform="matrix(1,0,0,1,622.5,1165) translate(149.8148148148148 99.44444444444446)"/><use xlink:href="#F" transform="matrix(1,0,0,1,622.5,1165) translate(180.679012345679 99.44444444444446)"/><path d="M761 1156.68h-2v-36.84h2zm0-58.18h-2v-37.66h2z" fill="#0c7cba"/><path d="M761 1060.87h-2v-.96l2-.12zM771.04 1139.83L760 1158.5l-11.04-18.67 1.72-1.02 9.32 15.77 9.32-15.76z" fill="#0c7cba"/><use xlink:href="#n" transform="matrix(1,0,0,1,749.1851851851852,1098.504864384283) translate(0.005000000000000782 14.222222222222223)"/><path d="M1625.26 713.68c2.62-2.03 6.86-2.03 9.48 0l80.52 62.64c2.62 2.03 2.62 5.33 0 7.36l-80.52 62.64c-2.62 2.03-6.86 2.03-9.48 0l-80.52-62.64c-2.62-2.03-2.62-5.33 0-7.36z" stroke="#0c7cba" stroke-width="3" fill="url(#G)"/><use xlink:href="#H" transform="matrix(1,0,0,1,1545,715) translate(72.04203703703703 50.27777777777778)"/><use xlink:href="#I" transform="matrix(1,0,0,1,1545,715) translate(22.134629629629625 76.94444444444446)"/><path d="M1522.72 1001h-239.4v-2h239.4zm108.28-6.87l-.92 3.42-2.53 2.53-3.42.92h-84.62v-2h84.37l2.64-.7 1.8-1.8.7-2.63v-143.6h2z" fill="#0c7cba"/><path d="M1630.94 849.3l.06 1h-2v-1.05zM1301.2 990.68l-15.77 9.32 15.76 9.32-1.03 1.72-18.67-11.04 18.67-11.04z" fill="#0c7cba"/><g><use xlink:href="#k" transform="matrix(1,0,0,1,1522.7151136728205,989.3333333333334) translate(0.005000000000000782 14.222222222222223)"/></g><path d="M1000.75 994.13l-.93 3.42-2.53 2.53-3.42.92H879.92v-2h113.7l2.64-.7 1.77-1.8.72-2.63v-93.2h2zM1120.4 781h-114.52l-2.64.7-1.78 1.8-.7 2.63v93.2h-2v-93.46l.9-3.42 2.54-2.53 3.4-.92h114.8z" fill="#0c7cba"/><path d="M1121.28 779.4l.28 1.6h-1.2v-2h1.1zM897.8 990.68l-15.77 9.32 15.76 9.32-1.03 1.72L878.1 1000l18.67-11.04z" fill="#0c7cba"/><g><use xlink:href="#n" transform="matrix(1,0,0,1,988.9307062943278,879.3333333333334) translate(0.005000000000000782 14.222222222222223)"/></g><path d="M808 1420c17.67 0 32 17.9 32 40s-14.33 40-32 40h-96c-17.67 0-32-17.9-32-40s14.33-40 32-40z" stroke="#0c7cba" stroke-width="3" fill="url(#J)"/><g><use xlink:href="#K" transform="matrix(1,0,0,1,685,1425) translate(59.62962962962963 39.65277777777778)"/></g><path d="M760 1282.5v134.18" stroke="#0c7cba" stroke-width="2" fill="none"/><path d="M761 1282.53h-2v-1.03h2z" fill="#0c7cba"/><path d="M749.82 1399.32l10.18 17.22 10.18-17.22" stroke="#0c7cba" stroke-width="2" fill="none"/><path d="M1547.77 1379.5H766.13l-2.64.7-1.8 1.8-.7 2.63v32.05h-2v-32.3l.92-3.43 2.53-2.53 3.42-.92h781.9zm208.45-599.58l2.53 2.53.92 3.42v586.76l-.92 3.42-2.53 2.53-3.4.92H1569.4v-2h183.14l2.64-.7 1.78-1.8.7-2.63V786.13l-.7-2.64-1.78-1.8-2.64-.7h-32.87v-2h33.14z" fill="#0c7cba"/><path d="M1719.7 781h-1.13l.2-.53-.28-1.47h1.2zM771.04 1399.83L760 1418.5l-11.04-18.67 1.72-1.02 9.32 15.77 9.32-15.76z" fill="#0c7cba"/><g><use xlink:href="#n" transform="matrix(1,0,0,1,1547.7717595571603,1367.8333333333333) translate(0.005000000000000782 14.222222222222223)"/></g><defs><linearGradient gradientUnits="userSpaceOnUse" id="a" x1="680" y1="60" x2="840" y2="78.82"><stop offset="0%" stop-color="#fff"/><stop offset="15.55%" stop-color="#fff"/><stop offset="100%" stop-color="#dbdbdb"/></linearGradient><path fill="#333" d="M33 0v-248h34V0H33" id="L"/><path fill="#333" d="M117-194c89-4 53 116 60 194h-32v-121c0-31-8-49-39-48C34-167 62-67 57 0H25l-1-190h30c1 10-1 24 2 32 11-22 29-35 61-36" id="M"/><path fill="#333" d="M24-231v-30h32v30H24zM24 0v-190h32V0H24" id="N"/><path fill="#333" d="M96-169c-40 0-48 33-48 73s9 75 48 75c24 0 41-14 43-38l32 2c-6 37-31 61-74 61-59 0-76-41-82-99-10-93 101-131 147-64 4 7 5 14 7 22l-32 3c-4-21-16-35-41-35" id="O"/><path fill="#333" d="M100-194c62-1 85 37 85 99 1 63-27 99-86 99S16-35 15-95c0-66 28-99 85-99zM99-20c44 1 53-31 53-75 0-43-8-75-51-75s-53 32-53 75 10 74 51 75" id="P"/><g id="b"><use transform="matrix(0.06172839506172839,0,0,0.06172839506172839,0,0)" xlink:href="#L"/><use transform="matrix(0.06172839506172839,0,0,0.06172839506172839,6.172839506172839,0)" xlink:href="#M"/><use transform="matrix(0.06172839506172839,0,0,0.06172839506172839,18.51851851851852,0)" xlink:href="#N"/><use transform="matrix(0.06172839506172839,0,0,0.06172839506172839,23.395061728395063,0)" xlink:href="#O"/><use transform="matrix(0.06172839506172839,0,0,0.06172839506172839,34.50617283950618,0)" xlink:href="#N"/><use transform="matrix(0.06172839506172839,0,0,0.06172839506172839,39.38271604938272,0)" xlink:href="#P"/></g><linearGradient gradientUnits="userSpaceOnUse" id="c" x1="680" y1="240" x2="840" y2="254.9"><stop offset="0%" stop-color="#fff"/><stop offset="15.55%" stop-color="#fff"/><stop offset="100%" stop-color="#dbdbdb"/></linearGradient><path fill="#333" d="M212-179c-10-28-35-45-73-45-59 0-87 40-87 99 0 60 29 101 89 101 43 0 62-24 78-52l27 14C228-24 195 4 139 4 59 4 22-46 18-125c-6-104 99-153 187-111 19 9 31 26 39 46" id="Q"/><path fill="#333" d="M141-36C126-15 110 5 73 4 37 3 15-17 15-53c-1-64 63-63 125-63 3-35-9-54-41-54-24 1-41 7-42 31l-33-3c5-37 33-52 76-52 45 0 72 20 72 64v82c-1 20 7 32 28 27v20c-31 9-61-2-59-35zM48-53c0 20 12 33 32 33 41-3 63-29 60-74-43 2-92-5-92 41" id="R"/><path fill="#333" d="M114-163C36-179 61-72 57 0H25l-1-190h30c1 12-1 29 2 39 6-27 23-49 58-41v29" id="S"/><path fill="#333" d="M177-190C167-65 218 103 67 71c-23-6-38-20-44-43l32-5c15 47 100 32 89-28v-30C133-14 115 1 83 1 29 1 15-40 15-95c0-56 16-97 71-98 29-1 48 16 59 35 1-10 0-23 2-32h30zM94-22c36 0 50-32 50-73 0-42-14-75-50-75-39 0-46 34-46 75s6 73 46 73" id="T"/><g id="d"><use transform="matrix(0.06172839506172839,0,0,0.06172839506172839,0,0)" xlink:href="#Q"/><use transform="matrix(0.06172839506172839,0,0,0.06172839506172839,15.987654320987653,0)" xlink:href="#R"/><use transform="matrix(0.06172839506172839,0,0,0.06172839506172839,28.333333333333332,0)" xlink:href="#S"/><use transform="matrix(0.06172839506172839,0,0,0.06172839506172839,35.67901234567901,0)" xlink:href="#T"/><use transform="matrix(0.06172839506172839,0,0,0.06172839506172839,48.02469135802469,0)" xlink:href="#R"/><use transform="matrix(0.06172839506172839,0,0,0.06172839506172839,60.37037037037037,0)" xlink:href="#S"/></g><path fill="#333" d="M205 0l-28-72H64L36 0H1l101-248h38L239 0h-34zm-38-99l-47-123c-12 45-31 82-46 123h93" id="U"/><path fill="#333" d="M106-169C34-169 62-67 57 0H25v-261h32l-1 103c12-21 28-36 61-36 89 0 53 116 60 194h-32v-121c2-32-8-49-39-48" id="V"/><path fill="#333" d="M108 0H70L1-190h34L89-25l56-165h34" id="W"/><g id="e"><use transform="matrix(0.06172839506172839,0,0,0.06172839506172839,0,0)" xlink:href="#U"/><use transform="matrix(0.06172839506172839,0,0,0.06172839506172839,14.814814814814813,0)" xlink:href="#S"/><use transform="matrix(0.06172839506172839,0,0,0.06172839506172839,22.160493827160494,0)" xlink:href="#O"/><use transform="matrix(0.06172839506172839,0,0,0.06172839506172839,33.27160493827161,0)" xlink:href="#V"/><use transform="matrix(0.06172839506172839,0,0,0.06172839506172839,45.617283950617285,0)" xlink:href="#N"/><use transform="matrix(0.06172839506172839,0,0,0.06172839506172839,50.49382716049383,0)" xlink:href="#W"/><use transform="matrix(0.06172839506172839,0,0,0.06172839506172839,61.60493827160494,0)" xlink:href="#P"/></g><linearGradient gradientUnits="userSpaceOnUse" id="f" x1="680" y1="420" x2="840" y2="448.24"><stop offset="0%" stop-color="#fff"/><stop offset="15.55%" stop-color="#fff"/><stop offset="100%" stop-color="#dbdbdb"/></linearGradient><path fill="#333" d="M30-248c118-7 216 8 213 122C240-48 200 0 122 0H30v-248zM63-27c89 8 146-16 146-99s-60-101-146-95v194" id="X"/><path fill="#333" d="M100-194c63 0 86 42 84 106H49c0 40 14 67 53 68 26 1 43-12 49-29l28 8c-11 28-37 45-77 45C44 4 14-33 15-96c1-61 26-98 85-98zm52 81c6-60-76-77-97-28-3 7-6 17-6 28h103" id="Y"/><path fill="#333" d="M115-194c53 0 69 39 70 98 0 66-23 100-70 100C84 3 66-7 56-30L54 0H23l1-261h32v101c10-23 28-34 59-34zm-8 174c40 0 45-34 45-75 0-40-5-75-45-74-42 0-51 32-51 76 0 43 10 73 51 73" id="Z"/><path fill="#333" d="M84 4C-5 8 30-112 23-190h32v120c0 31 7 50 39 49 72-2 45-101 50-169h31l1 190h-30c-1-10 1-25-2-33-11 22-28 36-60 37" id="aa"/><path fill="#333" d="M103-251c84 0 111 97 45 133-19 10-37 24-39 52H78c0-63 77-55 77-114 0-30-21-42-52-43-32 0-53 17-56 46l-32-2c7-45 34-72 88-72zM77 0v-35h34V0H77" id="ab"/><g id="g"><use transform="matrix(0.06172839506172839,0,0,0.06172839506172839,0,0)" xlink:href="#X"/><use transform="matrix(0.06172839506172839,0,0,0.06172839506172839,15.987654320987653,0)" xlink:href="#Y"/><use transform="matrix(0.06172839506172839,0,0,0.06172839506172839,28.333333333333332,0)" xlink:href="#Z"/><use transform="matrix(0.06172839506172839,0,0,0.06172839506172839,40.67901234567901,0)" xlink:href="#aa"/><use transform="matrix(0.06172839506172839,0,0,0.06172839506172839,53.02469135802469,0)" xlink:href="#T"/><use transform="matrix(0.06172839506172839,0,0,0.06172839506172839,65.37037037037037,0)" xlink:href="#T"/><use transform="matrix(0.06172839506172839,0,0,0.06172839506172839,77.71604938271605,0)" xlink:href="#Y"/><use transform="matrix(0.06172839506172839,0,0,0.06172839506172839,90.06172839506173,0)" xlink:href="#S"/><use transform="matrix(0.06172839506172839,0,0,0.06172839506172839,97.40740740740742,0)" xlink:href="#ab"/></g><linearGradient gradientUnits="userSpaceOnUse" id="h" x1="260" y1="560" x2="420" y2="578.82"><stop offset="0%" stop-color="#fff"/><stop offset="15.55%" stop-color="#fff"/><stop offset="100%" stop-color="#dbdbdb"/></linearGradient><path fill="#333" d="M30 0v-248h187v28H63v79h144v27H63v87h162V0H30" id="ac"/><path fill="#333" d="M24-231v-30h32v30H24zM-9 49c24 4 33-6 33-30v-209h32V24c2 40-23 58-65 49V49" id="ad"/><path fill="#333" d="M59-47c-2 24 18 29 38 22v24C64 9 27 4 27-40v-127H5v-23h24l9-43h21v43h35v23H59v120" id="ae"/><g id="i"><use transform="matrix(0.06172839506172839,0,0,0.06172839506172839,0,0)" xlink:href="#ac"/><use transform="matrix(0.06172839506172839,0,0,0.06172839506172839,14.814814814814813,0)" xlink:href="#ad"/><use transform="matrix(0.06172839506172839,0,0,0.06172839506172839,19.691358024691354,0)" xlink:href="#Y"/><use transform="matrix(0.06172839506172839,0,0,0.06172839506172839,32.03703703703703,0)" xlink:href="#O"/><use transform="matrix(0.06172839506172839,0,0,0.06172839506172839,43.14814814814814,0)" xlink:href="#aa"/><use transform="matrix(0.06172839506172839,0,0,0.06172839506172839,55.493827160493815,0)" xlink:href="#ae"/><use transform="matrix(0.06172839506172839,0,0,0.06172839506172839,61.66666666666666,0)" xlink:href="#R"/><use transform="matrix(0.06172839506172839,0,0,0.06172839506172839,74.01234567901234,0)" xlink:href="#S"/></g><path fill="#333" d="M135-143c-3-34-86-38-87 0 15 53 115 12 119 90S17 21 10-45l28-5c4 36 97 45 98 0-10-56-113-15-118-90-4-57 82-63 122-42 12 7 21 19 24 35" id="af"/><path fill="#333" d="M100-194c62-1 85 37 85 99 1 63-27 99-86 99S16-35 15-95c0-66 28-99 85-99zM99-20c44 1 53-31 53-75 0-43-8-75-51-75s-53 32-53 75 10 74 51 75zM76-211c8-23 27-35 38-54h36v5l-58 49H76" id="ag"/><g id="j"><use transform="matrix(0.06172839506172839,0,0,0.06172839506172839,0,0)" xlink:href="#L"/><use transform="matrix(0.06172839506172839,0,0,0.06172839506172839,6.172839506172839,0)" xlink:href="#M"/><use transform="matrix(0.06172839506172839,0,0,0.06172839506172839,18.51851851851852,0)" xlink:href="#af"/><use transform="matrix(0.06172839506172839,0,0,0.06172839506172839,29.62962962962963,0)" xlink:href="#ae"/><use transform="matrix(0.06172839506172839,0,0,0.06172839506172839,35.80246913580247,0)" xlink:href="#S"/><use transform="matrix(0.06172839506172839,0,0,0.06172839506172839,43.148148148148145,0)" xlink:href="#aa"/><use transform="matrix(0.06172839506172839,0,0,0.06172839506172839,55.49382716049382,0)" xlink:href="#O"/><use transform="matrix(0.06172839506172839,0,0,0.06172839506172839,66.60493827160494,0)" xlink:href="#O"/><use transform="matrix(0.06172839506172839,0,0,0.06172839506172839,77.71604938271605,0)" xlink:href="#N"/><use transform="matrix(0.06172839506172839,0,0,0.06172839506172839,82.5925925925926,0)" xlink:href="#ag"/><use transform="matrix(0.06172839506172839,0,0,0.06172839506172839,94.93827160493828,0)" xlink:href="#M"/></g><path fill="#333" d="M169-182c-1-43-94-46-97-3 18 66 151 10 154 114 3 95-165 93-204 36-6-8-10-19-12-30l50-8c3 46 112 56 116 5-17-69-150-10-154-114-4-87 153-88 188-35 5 8 8 18 10 28" id="ah"/><path fill="#333" d="M25 0v-190h50V0H25zm-5-208v-5l45-51h45v8l-60 48H20" id="ai"/><g id="k"><use transform="matrix(0.04938271604938272,0,0,0.04938271604938272,0,0)" xlink:href="#ah"/><use transform="matrix(0.04938271604938272,0,0,0.04938271604938272,11.851851851851853,0)" xlink:href="#ai"/></g><linearGradient gradientUnits="userSpaceOnUse" id="l" x1="1120" y1="560" x2="1280" y2="578.82"><stop offset="0%" stop-color="#fff"/><stop offset="15.55%" stop-color="#fff"/><stop offset="100%" stop-color="#dbdbdb"/></linearGradient><g id="m"><use transform="matrix(0.06172839506172839,0,0,0.06172839506172839,0,0)" xlink:href="#L"/><use transform="matrix(0.06172839506172839,0,0,0.06172839506172839,6.172839506172839,0)" xlink:href="#M"/><use transform="matrix(0.06172839506172839,0,0,0.06172839506172839,18.51851851851852,0)" xlink:href="#af"/><use transform="matrix(0.06172839506172839,0,0,0.06172839506172839,29.62962962962963,0)" xlink:href="#ae"/><use transform="matrix(0.06172839506172839,0,0,0.06172839506172839,35.80246913580247,0)" xlink:href="#S"/><use transform="matrix(0.06172839506172839,0,0,0.06172839506172839,43.148148148148145,0)" xlink:href="#aa"/><use transform="matrix(0.06172839506172839,0,0,0.06172839506172839,55.49382716049382,0)" xlink:href="#O"/><use transform="matrix(0.06172839506172839,0,0,0.06172839506172839,66.60493827160494,0)" xlink:href="#O"/><use transform="matrix(0.06172839506172839,0,0,0.06172839506172839,77.71604938271605,0)" xlink:href="#N"/><use transform="matrix(0.06172839506172839,0,0,0.06172839506172839,82.5925925925926,0)" xlink:href="#P"/><use transform="matrix(0.06172839506172839,0,0,0.06172839506172839,94.93827160493828,0)" xlink:href="#M"/><use transform="matrix(0.06172839506172839,0,0,0.06172839506172839,107.28395061728396,0)" xlink:href="#Y"/><use transform="matrix(0.06172839506172839,0,0,0.06172839506172839,119.62962962962965,0)" xlink:href="#af"/></g><path fill="#333" d="M135-194c87-1 58 113 63 194h-50c-7-57 23-157-34-157-59 0-34 97-39 157H25l-1-190h47c2 12-1 28 3 38 12-26 28-41 61-42" id="aj"/><path fill="#333" d="M110-194c64 0 96 36 96 99 0 64-35 99-97 99-61 0-95-36-95-99 0-62 34-99 96-99zm-1 164c35 0 45-28 45-65 0-40-10-65-43-65-34 0-45 26-45 65 0 36 10 65 43 65" id="ak"/><g id="n"><use transform="matrix(0.04938271604938272,0,0,0.04938271604938272,0,0)" xlink:href="#aj"/><use transform="matrix(0.04938271604938272,0,0,0.04938271604938272,10.814814814814815,0)" xlink:href="#ak"/></g><linearGradient gradientUnits="userSpaceOnUse" id="o" x1="1120" y1="720" x2="1280" y2="748.24"><stop offset="0%" stop-color="#fff"/><stop offset="15.55%" stop-color="#fff"/><stop offset="100%" stop-color="#dbdbdb"/></linearGradient><g id="p"><use transform="matrix(0.06172839506172839,0,0,0.06172839506172839,0,0)" xlink:href="#ac"/><use transform="matrix(0.06172839506172839,0,0,0.06172839506172839,14.814814814814813,0)" xlink:href="#S"/><use transform="matrix(0.06172839506172839,0,0,0.06172839506172839,22.160493827160494,0)" xlink:href="#S"/><use transform="matrix(0.06172839506172839,0,0,0.06172839506172839,29.50617283950617,0)" xlink:href="#P"/><use transform="matrix(0.06172839506172839,0,0,0.06172839506172839,41.85185185185185,0)" xlink:href="#S"/><use transform="matrix(0.06172839506172839,0,0,0.06172839506172839,49.197530864197525,0)" xlink:href="#Y"/><use transform="matrix(0.06172839506172839,0,0,0.06172839506172839,61.5432098765432,0)" xlink:href="#af"/></g><linearGradient gradientUnits="userSpaceOnUse" id="q" x1="1120" y1="960" x2="1280" y2="978.82"><stop offset="0%" stop-color="#fff"/><stop offset="15.55%" stop-color="#fff"/><stop offset="100%" stop-color="#dbdbdb"/></linearGradient><path fill="#333" d="M233-177c-1 41-23 64-60 70L243 0h-38l-65-103H63V0H30v-248c88 3 205-21 203 71zM63-129c60-2 137 13 137-47 0-61-80-42-137-45v92" id="al"/><path fill="#333" d="M115-194c55 1 70 41 70 98S169 2 115 4C84 4 66-9 55-30l1 105H24l-1-265h31l2 30c10-21 28-34 59-34zm-8 174c40 0 45-34 45-75s-6-73-45-74c-42 0-51 32-51 76 0 43 10 73 51 73" id="am"/><g id="r"><use transform="matrix(0.06172839506172839,0,0,0.06172839506172839,0,0)" xlink:href="#al"/><use transform="matrix(0.06172839506172839,0,0,0.06172839506172839,15.987654320987653,0)" xlink:href="#Y"/><use transform="matrix(0.06172839506172839,0,0,0.06172839506172839,28.333333333333332,0)" xlink:href="#am"/><use transform="matrix(0.06172839506172839,0,0,0.06172839506172839,40.67901234567901,0)" xlink:href="#P"/><use transform="matrix(0.06172839506172839,0,0,0.06172839506172839,53.02469135802469,0)" xlink:href="#S"/><use transform="matrix(0.06172839506172839,0,0,0.06172839506172839,60.37037037037037,0)" xlink:href="#ae"/><use transform="matrix(0.06172839506172839,0,0,0.06172839506172839,66.5432098765432,0)" xlink:href="#R"/><use transform="matrix(0.06172839506172839,0,0,0.06172839506172839,78.88888888888889,0)" xlink:href="#S"/></g><linearGradient gradientUnits="userSpaceOnUse" id="s" x1="640" y1="940" x2="880" y2="968.24"><stop offset="0%" stop-color="#fff"/><stop offset="15.55%" stop-color="#fff"/><stop offset="100%" stop-color="#dbdbdb"/></linearGradient><path fill="#333" d="M197 0v-115H63V0H30v-248h33v105h134v-105h34V0h-34" id="an"/><path fill="#333" d="M179-190L93 31C79 59 56 82 12 73V49c39 6 53-20 64-50L1-190h34L92-34l54-156h33" id="ao"/><g id="t"><use transform="matrix(0.06172839506172839,0,0,0.06172839506172839,0,0)" xlink:href="#an"/><use transform="matrix(0.06172839506172839,0,0,0.06172839506172839,15.987654320987653,0)" xlink:href="#R"/><use transform="matrix(0.06172839506172839,0,0,0.06172839506172839,28.333333333333332,0)" xlink:href="#ao"/></g><path fill="#333" d="M210-169c-67 3-38 105-44 169h-31v-121c0-29-5-50-35-48C34-165 62-65 56 0H25l-1-190h30c1 10-1 24 2 32 10-44 99-50 107 0 11-21 27-35 58-36 85-2 47 119 55 194h-31v-121c0-29-5-49-35-48" id="ap"/><g id="u"><use transform="matrix(0.06172839506172839,0,0,0.06172839506172839,0,0)" xlink:href="#ap"/><use transform="matrix(0.06172839506172839,0,0,0.06172839506172839,18.456790123456788,0)" xlink:href="#R"/><use transform="matrix(0.06172839506172839,0,0,0.06172839506172839,30.80246913580247,0)" xlink:href="#af"/></g><g id="v"><use transform="matrix(0.06172839506172839,0,0,0.06172839506172839,0,0)" xlink:href="#N"/><use transform="matrix(0.06172839506172839,0,0,0.06172839506172839,4.876543209876543,0)" xlink:href="#M"/><use transform="matrix(0.06172839506172839,0,0,0.06172839506172839,17.22222222222222,0)" xlink:href="#af"/><use transform="matrix(0.06172839506172839,0,0,0.06172839506172839,28.333333333333332,0)" xlink:href="#ae"/><use transform="matrix(0.06172839506172839,0,0,0.06172839506172839,34.50617283950617,0)" xlink:href="#S"/><use transform="matrix(0.06172839506172839,0,0,0.06172839506172839,41.85185185185185,0)" xlink:href="#aa"/><use transform="matrix(0.06172839506172839,0,0,0.06172839506172839,54.197530864197525,0)" xlink:href="#O"/><use transform="matrix(0.06172839506172839,0,0,0.06172839506172839,65.30864197530863,0)" xlink:href="#O"/><use transform="matrix(0.06172839506172839,0,0,0.06172839506172839,76.41975308641975,0)" xlink:href="#N"/><use transform="matrix(0.06172839506172839,0,0,0.06172839506172839,81.29629629629629,0)" xlink:href="#P"/><use transform="matrix(0.06172839506172839,0,0,0.06172839506172839,93.64197530864197,0)" xlink:href="#M"/><use transform="matrix(0.06172839506172839,0,0,0.06172839506172839,105.98765432098766,0)" xlink:href="#Y"/><use transform="matrix(0.06172839506172839,0,0,0.06172839506172839,118.33333333333334,0)" xlink:href="#af"/><use transform="matrix(0.06172839506172839,0,0,0.06172839506172839,129.44444444444446,0)" xlink:href="#ab"/></g><linearGradient gradientUnits="userSpaceOnUse" id="w" x1="570" y1="1160" x2="950" y2="1188.24"><stop offset="0%" stop-color="#fff"/><stop offset="15.55%" stop-color="#fff"/><stop offset="100%" stop-color="#dbdbdb"/></linearGradient><path fill="#333" d="M143 4C61 4 22-44 18-125c-5-107 100-154 193-111 17 8 29 25 37 43l-32 9c-13-25-37-40-76-40-61 0-88 39-88 99 0 61 29 100 91 101 35 0 62-11 79-27v-45h-74v-28h105v86C228-13 192 4 143 4" id="aq"/><g id="x"><use transform="matrix(0.06172839506172839,0,0,0.06172839506172839,0,0)" xlink:href="#aq"/><use transform="matrix(0.06172839506172839,0,0,0.06172839506172839,17.28395061728395,0)" xlink:href="#Y"/><use transform="matrix(0.06172839506172839,0,0,0.06172839506172839,29.629629629629626,0)" xlink:href="#M"/><use transform="matrix(0.06172839506172839,0,0,0.06172839506172839,41.9753086419753,0)" xlink:href="#Y"/><use transform="matrix(0.06172839506172839,0,0,0.06172839506172839,54.32098765432098,0)" xlink:href="#S"/><use transform="matrix(0.06172839506172839,0,0,0.06172839506172839,61.66666666666666,0)" xlink:href="#R"/><use transform="matrix(0.06172839506172839,0,0,0.06172839506172839,74.01234567901234,0)" xlink:href="#S"/></g><g id="y"><use transform="matrix(0.06172839506172839,0,0,0.06172839506172839,0,0)" xlink:href="#U"/><use transform="matrix(0.06172839506172839,0,0,0.06172839506172839,14.814814814814813,0)" xlink:href="#af"/><use transform="matrix(0.06172839506172839,0,0,0.06172839506172839,25.925925925925924,0)" xlink:href="#ae"/></g><g id="z"><use transform="matrix(0.06172839506172839,0,0,0.06172839506172839,0,0)" xlink:href="#aq"/><use transform="matrix(0.06172839506172839,0,0,0.06172839506172839,17.28395061728395,0)" xlink:href="#Y"/><use transform="matrix(0.06172839506172839,0,0,0.06172839506172839,29.629629629629626,0)" xlink:href="#M"/><use transform="matrix(0.06172839506172839,0,0,0.06172839506172839,41.9753086419753,0)" xlink:href="#Y"/><use transform="matrix(0.06172839506172839,0,0,0.06172839506172839,54.32098765432098,0)" xlink:href="#S"/><use transform="matrix(0.06172839506172839,0,0,0.06172839506172839,61.66666666666666,0)" xlink:href="#R"/><use transform="matrix(0.06172839506172839,0,0,0.06172839506172839,74.01234567901234,0)" xlink:href="#S"/></g><g id="A"><use transform="matrix(0.06172839506172839,0,0,0.06172839506172839,0,0)" xlink:href="#al"/><use transform="matrix(0.06172839506172839,0,0,0.06172839506172839,15.987654320987653,0)" xlink:href="#Y"/><use transform="matrix(0.06172839506172839,0,0,0.06172839506172839,28.333333333333332,0)" xlink:href="#am"/><use transform="matrix(0.06172839506172839,0,0,0.06172839506172839,40.67901234567901,0)" xlink:href="#P"/><use transform="matrix(0.06172839506172839,0,0,0.06172839506172839,53.02469135802469,0)" xlink:href="#S"/><use transform="matrix(0.06172839506172839,0,0,0.06172839506172839,60.37037037037037,0)" xlink:href="#ae"/><use transform="matrix(0.06172839506172839,0,0,0.06172839506172839,66.5432098765432,0)" xlink:href="#Y"/></g><path fill="#333" d="M85-194c31 0 48 13 60 33l-1-100h32l1 261h-30c-2-10 0-23-3-31C134-8 116 4 85 4 32 4 16-35 15-94c0-66 23-100 70-100zm9 24c-40 0-46 34-46 75 0 40 6 74 45 74 42 0 51-32 51-76 0-42-9-74-50-73" id="ar"/><g id="B"><use transform="matrix(0.06172839506172839,0,0,0.06172839506172839,0,0)" xlink:href="#ar"/><use transform="matrix(0.06172839506172839,0,0,0.06172839506172839,12.345679012345679,0)" xlink:href="#Y"/></g><g id="C"><use transform="matrix(0.06172839506172839,0,0,0.06172839506172839,0,0)" xlink:href="#ac"/><use transform="matrix(0.06172839506172839,0,0,0.06172839506172839,14.814814814814813,0)" xlink:href="#S"/><use transform="matrix(0.06172839506172839,0,0,0.06172839506172839,22.160493827160494,0)" xlink:href="#S"/><use transform="matrix(0.06172839506172839,0,0,0.06172839506172839,29.50617283950617,0)" xlink:href="#P"/><use transform="matrix(0.06172839506172839,0,0,0.06172839506172839,41.85185185185185,0)" xlink:href="#S"/><use transform="matrix(0.06172839506172839,0,0,0.06172839506172839,49.197530864197525,0)" xlink:href="#Y"/><use transform="matrix(0.06172839506172839,0,0,0.06172839506172839,61.5432098765432,0)" xlink:href="#af"/></g><path fill="#333" d="M127-220V0H93v-220H8v-28h204v28h-85" id="as"/><path fill="#333" d="M24 0v-261h32V0H24" id="at"/><g id="D"><use transform="matrix(0.06172839506172839,0,0,0.06172839506172839,0,0)" xlink:href="#as"/><use transform="matrix(0.06172839506172839,0,0,0.06172839506172839,11.049382716049381,0)" xlink:href="#R"/><use transform="matrix(0.06172839506172839,0,0,0.06172839506172839,23.39506172839506,0)" xlink:href="#Z"/><use transform="matrix(0.06172839506172839,0,0,0.06172839506172839,35.74074074074074,0)" xlink:href="#at"/><use transform="matrix(0.06172839506172839,0,0,0.06172839506172839,40.617283950617285,0)" xlink:href="#R"/></g><g id="E"><use transform="matrix(0.06172839506172839,0,0,0.06172839506172839,0,0)" xlink:href="#ar"/><use transform="matrix(0.06172839506172839,0,0,0.06172839506172839,12.345679012345679,0)" xlink:href="#Y"/></g><path fill="#333" d="M185-189c-5-48-123-54-124 2 14 75 158 14 163 119 3 78-121 87-175 55-17-10-28-26-33-46l33-7c5 56 141 63 141-1 0-78-155-14-162-118-5-82 145-84 179-34 5 7 8 16 11 25" id="au"/><g id="F"><use transform="matrix(0.06172839506172839,0,0,0.06172839506172839,0,0)" xlink:href="#au"/><use transform="matrix(0.06172839506172839,0,0,0.06172839506172839,14.814814814814813,0)" xlink:href="#N"/><use transform="matrix(0.06172839506172839,0,0,0.06172839506172839,19.691358024691354,0)" xlink:href="#ap"/><use transform="matrix(0.06172839506172839,0,0,0.06172839506172839,38.14814814814814,0)" xlink:href="#Z"/><use transform="matrix(0.06172839506172839,0,0,0.06172839506172839,50.493827160493815,0)" xlink:href="#P"/><use transform="matrix(0.06172839506172839,0,0,0.06172839506172839,62.83950617283949,0)" xlink:href="#at"/><use transform="matrix(0.06172839506172839,0,0,0.06172839506172839,67.71604938271604,0)" xlink:href="#P"/><use transform="matrix(0.06172839506172839,0,0,0.06172839506172839,80.06172839506172,0)" xlink:href="#af"/></g><linearGradient gradientUnits="userSpaceOnUse" id="G" x1="1540" y1="710" x2="1720" y2="742.94"><stop offset="0%" stop-color="#fff"/><stop offset="15.55%" stop-color="#fff"/><stop offset="100%" stop-color="#dbdbdb"/></linearGradient><g id="H"><use transform="matrix(0.06172839506172839,0,0,0.06172839506172839,0,0)" xlink:href="#ac"/><use transform="matrix(0.06172839506172839,0,0,0.06172839506172839,14.814814814814813,0)" xlink:href="#af"/></g><g id="I"><use transform="matrix(0.06172839506172839,0,0,0.06172839506172839,0,0)" xlink:href="#al"/><use transform="matrix(0.06172839506172839,0,0,0.06172839506172839,15.987654320987653,0)" xlink:href="#Y"/><use transform="matrix(0.06172839506172839,0,0,0.06172839506172839,28.333333333333332,0)" xlink:href="#O"/><use transform="matrix(0.06172839506172839,0,0,0.06172839506172839,39.44444444444444,0)" xlink:href="#aa"/><use transform="matrix(0.06172839506172839,0,0,0.06172839506172839,51.79012345679012,0)" xlink:href="#am"/><use transform="matrix(0.06172839506172839,0,0,0.06172839506172839,64.1358024691358,0)" xlink:href="#Y"/><use transform="matrix(0.06172839506172839,0,0,0.06172839506172839,76.48148148148148,0)" xlink:href="#S"/><use transform="matrix(0.06172839506172839,0,0,0.06172839506172839,83.82716049382717,0)" xlink:href="#R"/><use transform="matrix(0.06172839506172839,0,0,0.06172839506172839,96.17283950617285,0)" xlink:href="#Z"/><use transform="matrix(0.06172839506172839,0,0,0.06172839506172839,108.51851851851853,0)" xlink:href="#at"/><use transform="matrix(0.06172839506172839,0,0,0.06172839506172839,113.39506172839508,0)" xlink:href="#Y"/></g><linearGradient gradientUnits="userSpaceOnUse" id="J" x1="680" y1="1420" x2="840" y2="1438.82"><stop offset="0%" stop-color="#fff"/><stop offset="15.55%" stop-color="#fff"/><stop offset="100%" stop-color="#dbdbdb"/></linearGradient><path fill="#333" d="M63-220v92h138v28H63V0H30v-248h175v28H63" id="av"/><g id="K"><use transform="matrix(0.06172839506172839,0,0,0.06172839506172839,0,0)" xlink:href="#av"/><use transform="matrix(0.06172839506172839,0,0,0.06172839506172839,13.518518518518517,0)" xlink:href="#N"/><use transform="matrix(0.06172839506172839,0,0,0.06172839506172839,18.39506172839506,0)" xlink:href="#M"/></g></defs></g></svg>